<svg width="265" height="41" viewBox="0 0 265 41" fill="none" xmlns="http://www.w3.org/2000/svg">
<g clip-path="url(#clip0_0_1)">
<rect width="24" height="21" transform="translate(193)" fill="white"/>
<path d="M215.875 5.25H215.5V3.28125C215.5 1.44375 210.85 0 205 0C199.15 0 194.5 1.44375 194.5 3.28125V5.25H194.125C193.504 5.25 193 5.69051 193 6.23438V9.51562C193 10.0591 193.504 10.5 194.125 10.5H194.5V17.0625C194.5 17.7872 195.172 18.375 196 18.375V19.6875C196 20.4122 196.672 21 197.5 21H199C199.828 21 200.5 20.4122 200.5 19.6875V18.375H209.5V19.6875C209.5 20.4122 210.172 21 211 21H212.5C213.328 21 214 20.4122 214 19.6875V18.375H214.3C215.05 18.375 215.5 17.85 215.5 17.325V10.5H215.875C216.496 10.5 217 10.0591 217 9.51562V6.23438C217 5.69051 216.496 5.25 215.875 5.25ZM200.5 2.95312C200.5 2.77184 200.668 2.625 200.875 2.625H209.125C209.332 2.625 209.5 2.77184 209.5 2.95312V3.60938C209.5 3.79066 209.332 3.9375 209.125 3.9375H200.875C200.668 3.9375 200.5 3.79066 200.5 3.60938V2.95312ZM198.25 16.4062C197.422 16.4062 196.75 15.8185 196.75 15.0938C196.75 14.369 197.422 13.7812 198.25 13.7812C199.078 13.7812 199.75 14.369 199.75 15.0938C199.75 15.8185 199.078 16.4062 198.25 16.4062ZM204.25 11.8125H199C198.172 11.8125 197.5 11.2247 197.5 10.5V6.5625C197.5 5.83775 198.172 5.25 199 5.25H204.25V11.8125ZM205.75 11.8125V5.25H211C211.828 5.25 212.5 5.83775 212.5 6.5625V10.5C212.5 11.2247 211.828 11.8125 211 11.8125H205.75ZM211.75 16.4062C210.922 16.4062 210.25 15.8185 210.25 15.0938C210.25 14.369 210.922 13.7812 211.75 13.7812C212.578 13.7812 213.25 14.369 213.25 15.0938C213.25 15.8185 212.578 16.4062 211.75 16.4062Z" fill="#5FCBBE"/>
</g>
<path d="M5.816 40L0.92 28.8H3.176L7.544 38.928H6.248L10.664 28.8H12.744L7.864 40H5.816ZM18.9919 40.16C17.4559 40.16 16.2505 39.728 15.3759 38.864C14.5119 38 14.0799 36.752 14.0799 35.12V28.8H16.1599V35.04C16.1599 36.192 16.4052 37.0293 16.8959 37.552C17.3972 38.0747 18.1012 38.336 19.0079 38.336C19.9145 38.336 20.6132 38.0747 21.1039 37.552C21.5945 37.0293 21.8399 36.192 21.8399 35.04V28.8H23.8879V35.12C23.8879 36.752 23.4505 38 22.5759 38.864C21.7119 39.728 20.5172 40.16 18.9919 40.16ZM28.7209 33.456H34.2889V35.168H28.7209V33.456ZM28.8809 38.256H35.2009V40H26.8009V28.8H34.9769V30.544H28.8809V38.256ZM37.5196 40V28.8H39.5996V38.24H45.4556V40H37.5196ZM52.1426 40.16C51.268 40.16 50.4626 40.016 49.7266 39.728C48.9906 39.44 48.3506 39.04 47.8066 38.528C47.2626 38.0053 46.8413 37.3973 46.5426 36.704C46.244 36 46.0946 35.232 46.0946 34.4C46.0946 33.568 46.244 32.8053 46.5426 32.112C46.8413 31.408 47.2626 30.8 47.8066 30.288C48.3506 29.7653 48.9906 29.36 49.7266 29.072C50.4626 28.784 51.2626 28.64 52.1266 28.64C53.0013 28.64 53.8013 28.784 54.5266 29.072C55.2626 29.36 55.9026 29.7653 56.4466 30.288C56.9906 30.8 57.412 31.408 57.7106 32.112C58.0093 32.8053 58.1586 33.568 58.1586 34.4C58.1586 35.232 58.0093 36 57.7106 36.704C57.412 37.408 56.9906 38.016 56.4466 38.528C55.9026 39.04 55.2626 39.44 54.5266 39.728C53.8013 40.016 53.0066 40.16 52.1426 40.16ZM52.1266 38.336C52.692 38.336 53.2146 38.24 53.6946 38.048C54.1746 37.856 54.5906 37.584 54.9426 37.232C55.2946 36.8693 55.5666 36.4533 55.7586 35.984C55.9613 35.504 56.0626 34.976 56.0626 34.4C56.0626 33.824 55.9613 33.3013 55.7586 32.832C55.5666 32.352 55.2946 31.936 54.9426 31.584C54.5906 31.2213 54.1746 30.944 53.6946 30.752C53.2146 30.56 52.692 30.464 52.1266 30.464C51.5613 30.464 51.0386 30.56 50.5586 30.752C50.0893 30.944 49.6733 31.2213 49.3106 31.584C48.9586 31.936 48.6813 32.352 48.4786 32.832C48.2866 33.3013 48.1906 33.824 48.1906 34.4C48.1906 34.9653 48.2866 35.488 48.4786 35.968C48.6813 36.448 48.9586 36.8693 49.3106 37.232C49.6626 37.584 50.0786 37.856 50.5586 38.048C51.0386 38.24 51.5613 38.336 52.1266 38.336ZM86.5166 28.8H88.5966V40H86.5166V28.8ZM80.7246 40H78.6446V28.8H80.7246V40ZM86.6766 35.2H80.5486V33.424H86.6766V35.2ZM96.8458 40.16C95.9711 40.16 95.1658 40.016 94.4298 39.728C93.6938 39.44 93.0538 39.04 92.5098 38.528C91.9658 38.0053 91.5444 37.3973 91.2458 36.704C90.9471 36 90.7978 35.232 90.7978 34.4C90.7978 33.568 90.9471 32.8053 91.2458 32.112C91.5444 31.408 91.9658 30.8 92.5098 30.288C93.0538 29.7653 93.6938 29.36 94.4298 29.072C95.1658 28.784 95.9658 28.64 96.8298 28.64C97.7044 28.64 98.5044 28.784 99.2298 29.072C99.9658 29.36 100.606 29.7653 101.15 30.288C101.694 30.8 102.115 31.408 102.414 32.112C102.712 32.8053 102.862 33.568 102.862 34.4C102.862 35.232 102.712 36 102.414 36.704C102.115 37.408 101.694 38.016 101.15 38.528C100.606 39.04 99.9658 39.44 99.2298 39.728C98.5044 40.016 97.7098 40.16 96.8458 40.16ZM96.8298 38.336C97.3951 38.336 97.9178 38.24 98.3978 38.048C98.8778 37.856 99.2938 37.584 99.6458 37.232C99.9978 36.8693 100.27 36.4533 100.462 35.984C100.664 35.504 100.766 34.976 100.766 34.4C100.766 33.824 100.664 33.3013 100.462 32.832C100.27 32.352 99.9978 31.936 99.6458 31.584C99.2938 31.2213 98.8778 30.944 98.3978 30.752C97.9178 30.56 97.3951 30.464 96.8298 30.464C96.2644 30.464 95.7418 30.56 95.2618 30.752C94.7924 30.944 94.3764 31.2213 94.0138 31.584C93.6618 31.936 93.3844 32.352 93.1818 32.832C92.9898 33.3013 92.8938 33.824 92.8938 34.4C92.8938 34.9653 92.9898 35.488 93.1818 35.968C93.3844 36.448 93.6618 36.8693 94.0138 37.232C94.3658 37.584 94.7818 37.856 95.2618 38.048C95.7418 38.24 96.2644 38.336 96.8298 38.336ZM107.182 40V30.56H103.47V28.8H112.974V30.56H109.262V40H107.182ZM116.455 33.456H122.023V35.168H116.455V33.456ZM116.615 38.256H122.935V40H114.535V28.8H122.711V30.544H116.615V38.256ZM125.254 40V28.8H127.334V38.24H133.19V40H125.254ZM155.385 40V30.56H151.673V28.8H161.177V30.56H157.465V40H155.385ZM162.738 40V28.8H167.346C168.338 28.8 169.186 28.96 169.89 29.28C170.605 29.6 171.154 30.0587 171.538 30.656C171.922 31.2533 172.114 31.9627 172.114 32.784C172.114 33.6053 171.922 34.3147 171.538 34.912C171.154 35.4987 170.605 35.952 169.89 36.272C169.186 36.5813 168.338 36.736 167.346 36.736H163.89L164.818 35.792V40H162.738ZM170.066 40L167.234 35.936H169.458L172.306 40H170.066ZM164.818 36.016L163.89 35.024H167.25C168.168 35.024 168.856 34.8267 169.314 34.432C169.784 34.0373 170.018 33.488 170.018 32.784C170.018 32.0693 169.784 31.52 169.314 31.136C168.856 30.752 168.168 30.56 167.25 30.56H163.89L164.818 29.536V36.016ZM172.857 40L177.898 28.8H179.946L185.002 40H182.826L178.49 29.904H179.322L175.002 40H172.857ZM175.178 37.408L175.738 35.776H181.786L182.345 37.408H175.178ZM186.426 40V28.8H188.138L195.162 37.424H194.314V28.8H196.378V40H194.666L187.642 31.376H188.49V40H186.426ZM202.851 40.16C201.976 40.16 201.139 40.0373 200.339 39.792C199.539 39.536 198.904 39.2107 198.435 38.816L199.155 37.2C199.603 37.552 200.158 37.8453 200.819 38.08C201.48 38.3147 202.158 38.432 202.851 38.432C203.438 38.432 203.912 38.368 204.275 38.24C204.638 38.112 204.904 37.9413 205.075 37.728C205.246 37.504 205.331 37.2533 205.331 36.976C205.331 36.6347 205.208 36.3627 204.963 36.16C204.718 35.9467 204.398 35.7813 204.003 35.664C203.619 35.536 203.187 35.4187 202.707 35.312C202.238 35.2053 201.763 35.0827 201.283 34.944C200.814 34.7947 200.382 34.608 199.987 34.384C199.603 34.1493 199.288 33.84 199.043 33.456C198.798 33.072 198.675 32.5813 198.675 31.984C198.675 31.376 198.835 30.8213 199.155 30.32C199.486 29.808 199.982 29.4027 200.643 29.104C201.315 28.7947 202.163 28.64 203.187 28.64C203.859 28.64 204.526 28.7253 205.187 28.896C205.848 29.0667 206.424 29.312 206.915 29.632L206.259 31.248C205.758 30.9493 205.24 30.7307 204.707 30.592C204.174 30.4427 203.662 30.368 203.171 30.368C202.595 30.368 202.126 30.4373 201.763 30.576C201.411 30.7147 201.15 30.896 200.979 31.12C200.819 31.344 200.739 31.6 200.739 31.888C200.739 32.2293 200.856 32.5067 201.091 32.72C201.336 32.9227 201.651 33.0827 202.035 33.2C202.43 33.3173 202.867 33.4347 203.347 33.552C203.827 33.6587 204.302 33.7813 204.771 33.92C205.251 34.0587 205.683 34.24 206.067 34.464C206.462 34.688 206.776 34.992 207.011 35.376C207.256 35.76 207.379 36.2453 207.379 36.832C207.379 37.4293 207.214 37.984 206.883 38.496C206.563 38.9973 206.067 39.4027 205.395 39.712C204.723 40.0107 203.875 40.16 202.851 40.16ZM209.442 40V28.8H214.05C215.042 28.8 215.89 28.96 216.594 29.28C217.308 29.6 217.858 30.0587 218.242 30.656C218.626 31.2533 218.818 31.9627 218.818 32.784C218.818 33.6053 218.626 34.3147 218.242 34.912C217.858 35.5093 217.308 35.968 216.594 36.288C215.89 36.608 215.042 36.768 214.05 36.768H210.594L211.522 35.792V40H209.442ZM211.522 36.016L210.594 35.008H213.954C214.871 35.008 215.559 34.816 216.017 34.432C216.487 34.0373 216.722 33.488 216.722 32.784C216.722 32.0693 216.487 31.52 216.017 31.136C215.559 30.752 214.871 30.56 213.954 30.56H210.594L211.522 29.536V36.016ZM226.299 40.16C225.424 40.16 224.619 40.016 223.883 39.728C223.147 39.44 222.507 39.04 221.963 38.528C221.419 38.0053 220.998 37.3973 220.699 36.704C220.4 36 220.251 35.232 220.251 34.4C220.251 33.568 220.4 32.8053 220.699 32.112C220.998 31.408 221.419 30.8 221.963 30.288C222.507 29.7653 223.147 29.36 223.883 29.072C224.619 28.784 225.419 28.64 226.283 28.64C227.158 28.64 227.958 28.784 228.683 29.072C229.419 29.36 230.059 29.7653 230.603 30.288C231.147 30.8 231.568 31.408 231.867 32.112C232.166 32.8053 232.315 33.568 232.315 34.4C232.315 35.232 232.166 36 231.867 36.704C231.568 37.408 231.147 38.016 230.603 38.528C230.059 39.04 229.419 39.44 228.683 39.728C227.958 40.016 227.163 40.16 226.299 40.16ZM226.283 38.336C226.848 38.336 227.371 38.24 227.851 38.048C228.331 37.856 228.747 37.584 229.099 37.232C229.451 36.8693 229.723 36.4533 229.915 35.984C230.118 35.504 230.219 34.976 230.219 34.4C230.219 33.824 230.118 33.3013 229.915 32.832C229.723 32.352 229.451 31.936 229.099 31.584C228.747 31.2213 228.331 30.944 227.851 30.752C227.371 30.56 226.848 30.464 226.283 30.464C225.718 30.464 225.195 30.56 224.715 30.752C224.246 30.944 223.83 31.2213 223.467 31.584C223.115 31.936 222.838 32.352 222.635 32.832C222.443 33.3013 222.347 33.824 222.347 34.4C222.347 34.9653 222.443 35.488 222.635 35.968C222.838 36.448 223.115 36.8693 223.467 37.232C223.819 37.584 224.235 37.856 224.715 38.048C225.195 38.24 225.718 38.336 226.283 38.336ZM234.52 40V28.8H239.128C240.12 28.8 240.968 28.96 241.672 29.28C242.386 29.6 242.936 30.0587 243.32 30.656C243.704 31.2533 243.896 31.9627 243.896 32.784C243.896 33.6053 243.704 34.3147 243.32 34.912C242.936 35.4987 242.386 35.952 241.672 36.272C240.968 36.5813 240.12 36.736 239.128 36.736H235.672L236.6 35.792V40H234.52ZM241.848 40L239.016 35.936H241.24L244.088 40H241.848ZM236.6 36.016L235.672 35.024H239.032C239.949 35.024 240.637 34.8267 241.096 34.432C241.565 34.0373 241.8 33.488 241.8 32.784C241.8 32.0693 241.565 31.52 241.096 31.136C240.637 30.752 239.949 30.56 239.032 30.56H235.672L236.6 29.536V36.016ZM248.339 40V30.56H244.627V28.8H254.131V30.56H250.419V40H248.339ZM257.612 33.456H263.18V35.168H257.612V33.456ZM257.772 38.256H264.092V40H255.692V28.8H263.868V30.544H257.772V38.256Z" fill="#5FCBBE"/>
<path d="M67.1533 38V30.8H68.8653V38H67.1533ZM64.3213 35.2V33.6H71.6973V35.2H64.3213ZM141.622 38V30.8H143.334V38H141.622ZM138.79 35.2V33.6H146.166V35.2H138.79Z" fill="black"/>
<path d="M35.4247 21.3334H13.5751C13.2574 21.3334 13.0001 21.6317 13.0001 22V23.3333C13.0001 23.7017 13.2574 24 13.5751 24H35.4247C35.7424 24 35.9997 23.7017 35.9997 23.3333V22C35.9997 21.6317 35.7424 21.3334 35.4247 21.3334ZM15.8948 16.8864C16.1205 17.1714 16.4375 17.333 16.7692 17.3326L21.4603 17.3251C21.8306 17.3245 22.1955 17.2229 22.5255 17.0284L32.9817 10.8764C33.9426 10.311 34.804 9.50397 35.3902 8.4469C36.0482 7.26025 36.1197 6.40151 35.8599 5.79486C35.6008 5.18778 34.9708 4.74196 33.7666 4.65112C32.6938 4.57029 31.6269 4.89779 30.6659 5.46278L27.1258 7.54566L19.2664 4.12655C19.1719 4.05274 19.0621 4.00954 18.9484 4.00141C18.8347 3.99328 18.7211 4.02051 18.6195 4.0803L16.2567 5.4707C15.8733 5.69611 15.7805 6.28943 16.0709 6.65943L21.685 10.7469L17.9759 12.9293L15.3759 11.4098C15.2863 11.3574 15.1874 11.3302 15.087 11.3303C14.9867 11.3305 14.8878 11.358 14.7984 11.4106L13.3562 12.2593C12.9811 12.4802 12.8822 13.056 13.1561 13.4293L15.8948 16.8864Z" fill="#5FCBBE"/>
<path d="M113.417 6.125C113.739 6.125 114 5.88727 114 5.59375V4.53125C114 4.23773 113.739 4 113.417 4H93.5833C93.261 4 93 4.23773 93 4.53125V5.59375C93 5.88727 93.261 6.125 93.5833 6.125H94.1659V18.875H93.5833C93.261 18.875 93 19.1127 93 19.4062V20.4688C93 20.7623 93.261 21 93.5833 21H102.333V18.3438C102.333 18.0516 102.596 17.8125 102.917 17.8125H104.083C104.404 17.8125 104.667 18.0516 104.667 18.3438V21H113.417C113.739 21 114 20.7623 114 20.4688V19.4062C114 19.1127 113.739 18.875 113.417 18.875H112.833V6.125H113.417ZM102.333 7.6125C102.333 7.4 102.567 7.1875 102.8 7.1875H104.2C104.433 7.1875 104.667 7.4 104.667 7.6125V8.8875C104.667 9.1 104.433 9.3125 104.2 9.3125H102.8C102.567 9.3125 102.333 9.1 102.333 8.8875V7.6125ZM102.333 10.8C102.333 10.5875 102.567 10.375 102.8 10.375H104.2C104.433 10.375 104.667 10.5875 104.667 10.8V12.075C104.667 12.2875 104.433 12.5 104.2 12.5H102.8C102.567 12.5 102.333 12.2875 102.333 12.075V10.8ZM97.6667 7.6125C97.6667 7.4 97.9 7.1875 98.1333 7.1875H99.5333C99.7667 7.1875 100 7.4 100 7.6125V8.8875C100 9.1 99.7667 9.3125 99.5333 9.3125H98.1333C97.9 9.3125 97.6667 9.1 97.6667 8.8875V7.6125ZM99.5333 12.5H98.1333C97.9 12.5 97.6667 12.2875 97.6667 12.075V10.8C97.6667 10.5875 97.9 10.375 98.1333 10.375H99.5333C99.7667 10.375 100 10.5875 100 10.8V12.075C100 12.2875 99.7667 12.5 99.5333 12.5ZM100 16.75C100 14.9896 101.567 13.5625 103.5 13.5625C105.433 13.5625 107 14.9896 107 16.75H100ZM109.333 12.075C109.333 12.2875 109.1 12.5 108.867 12.5H107.467C107.233 12.5 107 12.2875 107 12.075V10.8C107 10.5875 107.233 10.375 107.467 10.375H108.867C109.1 10.375 109.333 10.5875 109.333 10.8V12.075ZM109.333 8.8875C109.333 9.1 109.1 9.3125 108.867 9.3125H107.467C107.233 9.3125 107 9.1 107 8.8875V7.6125C107 7.4 107.233 7.1875 107.467 7.1875H108.867C109.1 7.1875 109.333 7.4 109.333 7.6125V8.8875Z" fill="#5FCBBE"/>
<defs>
<clipPath id="clip0_0_1">
<rect width="24" height="21" fill="white" transform="translate(193)"/>
</clipPath>
</defs>
</svg>
